<svg enable-background="new 0 0 512 512" viewBox="0 0 512 512" xmlns="http://www.w3.org/2000/svg"><path d="m512 434.016v77.013h-512v-77.013c0-20.373 12.48-38.731 31.456-46.08l107.957-42.453 84.267 92.597 26.443-53.867v-.107l5.877-12.063 5.984 12.064 26.453 53.973 84.149-92.597 108.064 42.453c18.87 7.467 31.35 25.707 31.35 46.08" fill="#f2f2f2"/><path d="m331.52 329.483h.107v-43.84c-5.6 8.491-12.107 17.109-19.669 25.728l-10.453 11.52c-9.6 10.443-23.253 16.533-37.44 16.533h-16c-14.187 0-27.851-6.08-37.44-16.533l-10.453-11.52c-7.648-8.693-14.229-17.429-19.851-26.005v44.043l.171.085 65.813 37.12 9.707 5.44 9.707-5.44z" fill="#f8b64c"/><path d="m229.024 335.52c-.064-.021-.128-.043-.192-.064-.107-.043-.224-.075-.331-.107-.107-.053-.224-.064-.373-.117l40.224 29.877 63.168-35.627h.064l.043-43.616c-.107.16-14.997 19.669-19.669 25.483l-10.453 11.531c-9.6 10.443-23.253 16.533-37.44 16.533h-16c-3.232 0-6.4-.352-9.504-1.013-3.286-.629-6.454-1.611-9.537-2.88" fill="#40596b" opacity=".1"/><path d="m181.141 196.309c1.664 19.147-7.627 35.605-20.747 36.736-13.141 1.152-25.141-13.451-26.837-32.597-1.664-19.147 7.627-35.584 20.768-36.736 13.131-1.152 25.152 13.44 26.816 32.597" fill="#f8b64c"/><path d="m378.539 200.469c-1.664 19.147-13.685 33.739-26.816 32.587-13.141-1.152-22.443-17.589-20.747-36.736 1.664-19.147 13.685-33.749 26.816-32.597 13.141 1.13 22.432 17.589 20.747 36.746" fill="#f8b64c"/><path d="m364.853 196.373c-2.016 21.44-12.171 68.683-52.896 114.976l-10.453 11.52c-9.6 10.453-23.253 16.544-37.44 16.544h-16c-14.187 0-27.851-6.08-37.44-16.544l-10.453-11.52c-40.747-46.293-50.773-93.547-52.917-114.976-2.88-29.547-1.707-67.093 0-76.8 9.707-56.853 58.357-92.16 108.811-92.16 50.443 0 99.083 35.307 108.789 92.16 1.706 9.707 2.879 47.264-.001 76.8" fill="#ffd15c"/><path d="m172.896 54.368s.747-71.819 105.163-48.875c0 0 51.808 16.277 85.141 64.427 0 0 31.275 45.419 14.272 83.627-5.525 12.405-11.456 26.603-10.773 38.005 0 0-5.792-24.203-9.248-44.373-2.891-16.896-10.165-32.725-21.333-45.717l-.331-.395c-18.08-20.939-46.379-30.731-73.141-23.829-12.768 3.296-27.296 9.728-43.275 21.131 0 0-43.499-29.195-65.003 21.909 0 0-9.579 37.355-8.224 66.859 0-.012-59.872-125.366 26.752-132.769" fill="#40596b"/><path d="m398.603 375.349c-.213-1.813-.629-18.443-4.043-25.163-5.771-11.317-16.107-18.88-28.587-20.8l-34.347-6.933v7.04h-.107l-4.917 2.773 37.664 7.68c9.067 1.387 16.651 6.827 20.693 15.029 2.667 5.227 3.755 10.891 2.891 16.437l-.224 2.773c-45.12 39.147-57.92 74.453-58.453 76.053-3.392 10.133-3.189 18.133.544 23.893 4.171 6.507 10.976 7.253 11.829 7.36l1.067-10.667c-.107 0-2.667-.437-4.043-2.667-1.707-2.784-1.504-7.893.747-14.411.107-.224 6.4-17.589 25.6-41.077 5.333-2.667 11.296-3.189 17.067-1.493 5.547 1.707 10.229 5.451 13.12 10.443 2.123 30.837-2.56 48.971-2.667 49.077-2.037 6.613-4.811 10.987-7.893 12.16-2.453 1.077-4.704-.107-4.704-.213l-2.667 4.683-2.773 4.619c.437.32 3.733 2.133 8.107 2.133 1.813 0 3.755-.32 5.771-1.173 6.4-2.443 11.317-8.853 14.496-19.093.437-1.599 10.346-38.836-4.171-98.463m-14.166 27.627c-3.211-.96-6.624-1.376-9.835-1.269 4.608-5.024 9.707-10.133 15.477-15.349 1.6 7.456 2.773 14.603 3.627 21.333-2.773-2.048-5.877-3.638-9.269-4.715" fill="#acb3ba"/><path d="m350.933 478.037c-.853 4.288-5.024 7.083-9.312 6.24-4.267-.843-1.227-16.384 3.061-15.541 4.289.843 7.094 5.013 6.251 9.301" fill="#f8b64c"/><path d="m368.224 483.371c-1.813 3.979-.085 8.672 3.893 10.496 3.979 1.824 10.581-12.565 6.603-14.4-3.947-1.824-8.661-.075-10.496 3.904" fill="#f8b64c"/><path d="m180.48 329.483-.171-.085v-6.955l-23.061 4.747c-24.608 5.067-45.312 20.768-56.853 43.061-11.52 22.315-12.352 48.299-2.251 71.296l9.771-4.288c-8.789-20.032-8.107-42.656 1.963-62.101 10.037-19.413 28.085-33.099 49.504-37.504l26.059-5.365z" fill="#acb3ba"/><path d="m372.587 345.483-78.71 103.253-37.877-76.693 9.707-5.44 65.813-37.12h.107l.106-.107z" fill="#cdd6e0"/><path d="m139.413 345.483 78.838 103.253 37.749-76.693-9.707-5.44-65.813-37.12-.213-.107z" fill="#cdd6e0"/><path d="m218.251 511.029 21.536-49.066-9.291-13.654-6.805-10.24 26.432-53.962 5.877-12.064 5.984 12.064v.106l26.453 53.856-6.933 10.144-9.291 13.75 21.664 49.066z" fill="#334a5e"/><path d="m288.437 438.069-6.933 10.144-25.397-51.957-25.611 52.053-6.805-10.24 26.432-53.962 5.877-12.064 5.984 12.064v.106z" fill="#2a4356"/><path d="m135.104 458.251c0 13.333-10.837 24.16-24.171 24.16s-24.149-10.827-24.149-24.16 10.816-24.149 24.149-24.149 24.171 10.815 24.171 24.149" fill="#ff7058"/><path d="m127.168 458.251c0 8.96-7.253 16.224-16.213 16.224-8.981 0-16.245-7.275-16.245-16.224s7.275-16.224 16.245-16.224c8.96 0 16.213 7.264 16.213 16.224" fill="#f2f2f2"/><path d="m122.315 458.251c0 6.293-5.088 11.371-11.349 11.371-6.293 0-11.392-5.088-11.392-11.371 0-6.272 5.109-11.36 11.392-11.36 6.261 0 11.349 5.088 11.349 11.36" fill="#acb3ba"/></svg>