<svg enable-background="new 0 0 512 512" height="512" viewBox="0 0 512 512" width="512" xmlns="http://www.w3.org/2000/svg"><path d="m8.348 231.485c-4.174 0-7.557-3.383-7.557-7.557v-141.872c0-17.313 14.085-31.398 31.397-31.398h472.254c4.174 0 7.557 3.383 7.557 7.557s-3.383 7.557-7.557 7.557h-472.253c-8.979 0-16.283 7.305-16.283 16.284v141.872c-.001 4.174-3.384 7.557-7.558 7.557z" fill="#c9beb9"/><path d="m467.398 106.738c-4.174 0-7.557-3.383-7.557-7.557v-39.958c0-4.174 3.383-7.557 7.557-7.557s7.557 3.383 7.557 7.557v39.958c0 4.174-3.383 7.557-7.557 7.557z" fill="#c9beb9"/><path d="m388.04 196.421h-374.592c-7.427 0-13.448 6.021-13.448 13.448v209.536h401.488v-209.536c0-7.427-6.021-13.448-13.448-13.448z" fill="#eedfda"/><path d="m387.938 196.421h-21.926c7.483 0 13.55 6.066 13.55 13.55v209.434h21.926v-209.434c0-7.483-6.067-13.55-13.55-13.55z" fill="#c9beb9"/><path d="m355.655 312.007c-.969-4.494-.753-9.164.638-13.546 2.016-6.348 3.106-13.108 3.106-20.124v-78.16c0-6.954-1.069-13.657-3.049-19.957-1.372-4.364-1.581-9.008-.617-13.48l5.572-25.846c1.099-5.097-3.432-9.627-8.529-8.529l-25.127 5.417c-4.597.991-9.376.749-13.839-.733-6.574-2.182-13.601-3.37-20.908-3.37h-184.629c-7.307 0-14.334 1.188-20.908 3.37-4.463 1.481-9.242 1.724-13.839.733l-25.127-5.417c-5.097-1.099-9.627 3.432-8.529 8.529l5.572 25.846c.964 4.472.754 9.116-.617 13.48-1.98 6.3-3.049 13.003-3.049 19.957v78.16c0 7.016 1.09 13.776 3.106 20.124 1.391 4.382 1.607 9.051.638 13.546l-5.649 26.205c-1.099 5.097 3.432 9.627 8.529 8.529l26.205-5.649c4.494-.969 9.164-.753 13.546.638 6.348 2.016 13.108 3.106 20.124 3.106h184.628c7.016 0 13.776-1.09 20.124-3.106 4.382-1.391 9.051-1.607 13.546-.638l26.205 5.649c5.097 1.099 9.627-3.432 8.529-8.529z" fill="#80b4fb"/><path d="m355.655 312.007c-.969-4.494-.753-9.164.638-13.546 2.016-6.348 3.106-13.108 3.106-20.124v-78.16c0-6.953-1.069-13.657-3.049-19.957-1.372-4.364-1.581-9.008-.617-13.48l5.572-25.846c1.099-5.097-3.432-9.627-8.529-8.529l-25.127 5.417c-4.427.954-9.02.753-13.34-.586.117.456.238.912.38 1.362 1.98 6.3 3.049 13.003 3.049 19.957v78.16c0 7.016-1.09 13.776-3.106 20.124-1.391 4.382-1.607 9.051-.638 13.546l5.649 26.205c1.099 5.097-3.432 9.627-8.529 8.529l-26.205-5.649c-4.494-.969-9.163-.753-13.546.638-6.348 2.016-13.108 3.106-20.124 3.106h-184.626c-7.016 0-13.776-1.09-20.124-3.106-.415-.132-.834-.243-1.254-.353 1.058 4.013 1.162 8.223.285 12.292l-5.649 26.205c-1.099 5.097 3.432 9.627 8.529 8.529l26.205-5.649c4.494-.969 9.163-.753 13.546.638 6.348 2.016 13.108 3.106 20.124 3.106h184.628c7.016 0 13.776-1.09 20.124-3.106 4.382-1.391 9.051-1.607 13.546-.638l26.205 5.649c5.097 1.099 9.627-3.432 8.529-8.529z" fill="#61a2f9"/><path d="m284.637 285.1h-168.099c-48.739 0-88.25 39.511-88.25 88.25v43.369h344.599v-43.369c0-48.739-39.511-88.25-88.25-88.25z" fill="#f9f6f6"/><path d="m283.966 285.1h-37.224c49.11 0 88.921 39.811 88.921 88.921v42.698h37.224v-42.698c0-49.11-39.811-88.921-88.921-88.921z" fill="#eedfda"/><path d="m230.328 308.841h-59.48c-7.541 0-13.655-6.113-13.655-13.655v-48.41h86.79v48.41c0 7.541-6.114 13.655-13.655 13.655z" fill="#ffcbbe"/><path d="m221.604 246.776v48.306c0 7.599-6.16 13.759-13.759 13.759h22.379c7.599 0 13.759-6.16 13.759-13.759v-48.306z" fill="#ffa68d"/><path d="m234.362 99.634h-67.548c-17.673 0-32 14.327-32 32v46.604h131.548v-46.604c0-17.673-14.327-32-32-32z" fill="#c56e37"/><path d="m234.361 99.634h-16.461c16.613 0 30.08 13.467 30.08 30.08v48.524h18.381v-46.604c0-17.673-14.326-32-32-32z" fill="#8f4e24"/><g fill="#ffcbbe"><path d="m141.901 197.023c3.917 12.046 7.938 24.374-2.337 27.715s-23.448-8.848-27.366-20.894c-3.917-12.046 1.237-24.52 11.511-27.861 10.276-3.341 14.275 8.994 18.192 21.04z"/><path d="m259.273 197.023c-3.917 12.046-7.938 24.374 2.337 27.715s23.448-8.848 27.366-20.894c3.917-12.046-1.237-24.52-11.511-27.861-10.275-3.341-14.274 8.994-18.192 21.04z"/><path d="m230.044 138.936h-58.913c-20.058 0-36.317 16.26-36.317 36.317v42.638c0 36.052 29.226 65.278 65.278 65.278h.992c36.052 0 65.278-29.226 65.278-65.278v-42.638c0-20.057-16.26-36.317-36.318-36.317z"/></g><path d="m240.382 140.505c1.017 3.36 1.569 6.922 1.569 10.614v41.866c0 36.326-29.448 65.774-65.774 65.774-11.894 0-23.041-3.173-32.668-8.696 11.343 19.775 32.647 33.106 57.078 33.106 36.326 0 65.774-29.448 65.774-65.774v-41.866c0-16.517-10.946-30.474-25.979-35.024z" fill="#ffa68d"/><circle cx="169.763" cy="191.309" fill="#873e2f" r="9.055"/><circle cx="231.412" cy="191.309" fill="#873e2f" r="9.055"/><path d="m213.019 239.722h-27.205c-4.174 0-7.557-3.383-7.557-7.557s3.383-7.557 7.557-7.557h27.205c4.174 0 7.557 3.383 7.557 7.557s-3.383 7.557-7.557 7.557z" fill="#da4a54"/><path d="m259.273 197.023c-3.917 12.046-7.938 24.374 2.337 27.715s23.448-8.848 27.366-20.894c3.917-12.046-1.237-24.52-11.511-27.861-10.275-3.341-14.274 8.994-18.192 21.04z" fill="#ffa68d"/><path d="m365.035 420.483c-2.061 0-4.115-.838-5.606-2.487-2.8-3.096-2.561-7.874.534-10.674l94.64-85.624c8.042-7.578 10.193-19.751 5.229-29.629l-20.524-40.831c-6.259-12.451-5.575-27.538 1.786-39.372l17.544-28.204c2.204-3.542 6.864-4.631 10.408-2.425 3.544 2.204 4.63 6.864 2.425 10.409l-17.544 28.203c-4.599 7.395-5.027 16.821-1.116 24.602l20.525 40.831c7.96 15.836 4.488 35.363-8.442 47.485-.032.03-.065.061-.098.091l-94.693 85.672c-1.446 1.308-3.26 1.953-5.068 1.953z" fill="#9dc6fb"/><path d="m467.678 201.838h-.559c-20.305 0-36.765-16.46-36.765-36.765v-66.083c0-3.651 2.96-6.61 6.61-6.61h60.869c3.651 0 6.61 2.96 6.61 6.61v66.083c0 20.304-16.46 36.765-36.765 36.765z" fill="#f9f6f6"/><path d="m497.782 92.379h-22.109c3.679 0 6.661 2.982 6.661 6.661v65.753c0 16.609-10.931 30.664-25.99 35.366 3.491 1.09 7.204 1.678 11.054 1.678 20.459 0 37.045-16.585 37.045-37.045v-65.752c0-3.679-2.982-6.661-6.661-6.661z" fill="#eedfda"/><path d="m430.354 128.339v36.454c0 20.459 16.585 37.045 37.045 37.045 20.459 0 37.045-16.585 37.045-37.045v-36.454z" fill="#bed8fb"/><path d="m482.334 128.339v36.454c0 16.609-10.931 30.664-25.99 35.366 3.491 1.09 7.204 1.678 11.054 1.678 20.459 0 37.045-16.585 37.045-37.045v-36.454h-22.109z" fill="#9dc6fb"/><path d="m274.459 341.64h-147.667c-42.536 0-81.156 16.757-109.626 44.026-10.855 10.397-16.978 24.789-16.978 39.82v30.197c0 3.126 2.534 5.659 5.659 5.659h389.865c3.126 0 5.659-2.534 5.659-5.659v-29.906c0-14.981-6.092-29.32-16.874-39.72-28.509-27.501-67.298-44.417-110.038-44.417z" fill="#80b4fb"/><path d="m384.497 386.056c-28.51-27.501-67.298-44.416-110.038-44.416h-72.3c42.74 0 81.528 16.915 110.038 44.416 10.782 10.401 16.874 24.739 16.874 39.72v29.906c0 3.126-2.534 5.659-5.659 5.659h72.3c3.126 0 5.659-2.534 5.659-5.659v-29.906c.001-14.981-6.091-29.319-16.874-39.72z" fill="#61a2f9"/></svg>